<svg width="160" height="50" viewBox="0 0 160 50" fill="none" xmlns="http://www.w3.org/2000/svg">
<path fill-rule="evenodd" clip-rule="evenodd" d="M1.23914 17.4281C7.13547 16.7861 13.2542 18.7902 17.6761 23.4025C24.4648 30.4836 24.9443 41.301 19.2644 48.9103C16.9552 48.3743 14.7707 47.5139 12.7595 46.3819C17.7848 41.3198 17.8799 33.1444 12.9158 27.9664C9.50746 24.4111 4.58696 23.18 0.131836 24.3129C0.177185 21.9198 0.560761 19.609 1.23914 17.4281Z" fill="#00B290"/>
<path fill-rule="evenodd" clip-rule="evenodd" d="M0.906738 30.9849C3.33697 29.996 6.22913 30.521 8.15518 32.5302C10.6757 35.1592 10.5877 39.334 7.95857 41.8544C7.78143 42.0242 7.5971 42.1818 7.40696 42.3279C4.31319 39.2442 2.03027 35.3474 0.906738 30.9849Z" fill="#00B290"/>
<path fill-rule="evenodd" clip-rule="evenodd" d="M3.39453 37.094C3.39453 37.094 3.39453 37.094 3.39453 37.0933C3.39493 37.0933 3.39493 37.0933 3.39533 37.0933C3.39533 37.094 3.39533 37.094 3.39533 37.094C3.39493 37.094 3.39493 37.094 3.39453 37.094Z" fill="white"/>
<path fill-rule="evenodd" clip-rule="evenodd" d="M10.6048 13.723C8.93995 11.9866 7.65488 10.025 6.74658 7.94126C8.33404 6.23308 10.1594 4.74957 12.1704 3.54334C12.7326 5.58616 13.796 7.52238 15.3652 9.15916C20.4063 14.4174 28.7556 14.5936 34.0138 9.55254C35.7942 7.84574 36.9909 5.7596 37.6008 3.54274C39.612 4.74897 41.4377 6.23249 43.0252 7.94067C42.0102 10.2712 40.5271 12.4438 38.5775 14.313C30.6902 21.8745 18.1663 21.6105 10.6048 13.723Z" fill="#007D71"/>
<path fill-rule="evenodd" clip-rule="evenodd" d="M20.1253 4.59551C19.1176 3.54434 18.5272 2.24614 18.3491 0.905422C20.4316 0.336819 22.623 0.031456 24.8857 0.031456C27.1485 0.031456 29.3396 0.336819 31.4222 0.905422C31.2319 2.33652 30.5727 3.71521 29.4496 4.7921C26.8206 7.31274 22.6457 7.22453 20.1253 4.59551Z" fill="#007D71"/>
<path fill-rule="evenodd" clip-rule="evenodd" d="M30.5077 48.9103C24.6189 41.0225 25.3978 29.7994 32.6856 22.8127C37.0817 18.5981 42.9181 16.8158 48.5329 17.4285C49.2113 19.6096 49.5948 21.9202 49.6401 24.3136C45.3736 23.2288 40.6611 24.3024 37.2495 27.573C31.9912 32.6141 31.8152 40.9634 36.8561 46.2215C36.9081 46.2757 36.9609 46.3285 37.0133 46.3815C35.0019 47.5137 32.8171 48.374 30.5077 48.9103Z" fill="#9CDB88"/>
<path fill-rule="evenodd" clip-rule="evenodd" d="M41.6166 41.6578C39.096 39.0288 39.184 34.854 41.8132 32.3335C43.7512 30.4755 46.5289 30.0353 48.8649 30.9852C47.7413 35.3478 45.4584 39.2448 42.3644 42.3285C42.1023 42.1272 41.8522 41.9037 41.6166 41.6578Z" fill="#9CDB88"/>
<path d="M75.6312 17.7691C72.5756 17.7691 70.4165 19.0321 69.072 21.1912V9.58041H63.2871V39.5243H69.072V28.1986C69.072 24.4913 71.0684 22.7396 73.8386 22.7396C76.0794 22.7396 78.4015 23.8803 78.4015 27.9948V39.5243H84.2273V27.0987C84.2273 20.5801 80.1126 17.7691 75.6312 17.7691ZM109.91 34.9614H104.98V22.7801H109.91V18.2172H104.98V9.58041H99.1951V18.2172H95.7325V22.7801H99.1951V34.9614H99.1993C99.3006 37.4884 101.399 39.5243 103.949 39.5243H104.98H105.994H109.91V34.9614ZM90.4689 16.0987C92.2613 16.0987 93.728 14.632 93.728 12.8395C93.728 11.0062 92.2613 9.58041 90.4689 9.58041C88.6763 9.58041 87.2096 11.0062 87.2096 12.8395C87.2096 14.632 88.6763 16.0987 90.4689 16.0987ZM87.5763 18.2172V39.5243H93.3614V18.2172H87.5763ZM125.318 17.8098C121.773 17.8098 118.962 19.3988 117.903 21.9245L117.903 9.58041H112.118L112.118 39.5243H117.903V36.3873C119.492 38.7503 122.303 39.9725 124.992 39.9725C131.592 39.9725 135.584 35.2467 135.584 28.9319C135.584 22.9023 131.795 17.8098 125.318 17.8098ZM123.81 34.7577C120.388 34.7577 117.944 32.2727 117.944 28.8912C117.944 25.4691 120.388 23.0246 123.81 23.0246C127.273 23.0246 129.758 25.4281 129.758 28.8912C129.758 32.3133 127.273 34.7577 123.81 34.7577Z" fill="white"/>
<path d="M154.024 21.4766V21.3543C152.435 18.9911 149.623 17.7691 146.935 17.7691C140.335 17.7691 136.342 22.4949 136.342 28.8097C136.342 34.8799 140.131 39.9318 146.609 39.9318C150.153 39.9318 152.964 38.3836 154.024 35.8576V39.5243H159.849V18.2172H154.961L154.024 21.4766ZM148.116 34.7577C144.653 34.7577 142.168 32.3133 142.168 28.8504C142.168 25.4281 144.653 23.0246 148.116 23.0246C151.539 23.0246 153.983 25.469 153.983 28.8504C153.983 32.2727 151.539 34.7577 148.116 34.7577Z" fill="white"/>
</svg>
