<svg width="185" height="63" viewBox="0 0 185 63" fill="none" xmlns="http://www.w3.org/2000/svg">
<path fill-rule="evenodd" clip-rule="evenodd" d="M61.0996 38.5154C61.0996 37.3341 60.8669 36.1645 60.4147 35.0732C59.9625 33.9819 59.2998 32.9904 58.4643 32.1553L56.9623 30.6533C56.9393 30.6303 56.9156 30.6085 56.8913 30.5878L52.3399 26.1109L51.6948 25.4764L51.6946 25.4762C51.2716 25.06 50.7704 24.7308 50.2202 24.5066C49.67 24.2824 49.0809 24.1672 48.4865 24.1672C47.892 24.1672 47.3029 24.2824 46.7527 24.5066C46.2025 24.7309 45.7012 25.0601 45.2782 25.4764C44.8551 25.8925 44.5184 26.3875 44.2883 26.9338C44.0581 27.4803 43.9393 28.0667 43.9393 28.6595C43.9393 29.2522 44.0581 29.8386 44.2883 30.3851C44.4793 30.8386 44.7437 31.2567 45.0701 31.6237C44.3454 32.4389 43.9396 33.4911 43.9396 34.5878C43.9396 35.7856 44.4236 36.9302 45.2784 37.7711C46.1326 38.6112 47.2869 39.0798 48.4865 39.0798C49.6861 39.0798 50.8404 38.6112 51.6946 37.7711L52.3399 37.1363L56.2308 33.3092L56.7708 33.8493L56.771 33.8495C57.3839 34.4621 57.8701 35.1895 58.2018 35.9901C58.5336 36.7907 58.7043 37.6488 58.7043 38.5154C58.7043 39.382 58.5336 40.2401 58.2018 41.0407C57.8701 41.8413 57.3839 42.5686 56.771 43.1813L56.7706 43.1817C56.158 43.7946 55.4306 44.2808 54.63 44.6125C53.8294 44.9443 52.9713 45.115 52.1047 45.115C51.2381 45.115 50.38 44.9443 49.5794 44.6125C48.7788 44.2808 48.0514 43.7946 47.4388 43.1817L47.4386 43.1815L45.9363 41.6792L35.7573 31.5002L45.9363 21.3211L47.4386 19.8188C48.6761 18.5813 50.3546 17.8861 52.1047 17.8861C53.8548 17.8861 55.5333 18.5813 56.7708 19.8188C58.0083 21.0564 58.7036 22.7348 58.7036 24.4849C58.7036 25.9213 58.2352 27.3095 57.3831 28.4452C56.9861 28.9743 57.0932 29.725 57.6223 30.122C58.1514 30.5189 58.9021 30.4118 59.2991 29.8828C60.4605 28.3348 61.0989 26.4428 61.0989 24.4849C61.0989 22.0995 60.1513 19.8118 58.4645 18.1251C56.7778 16.4384 54.4901 15.4908 52.1047 15.4908C49.7193 15.4908 47.4316 16.4384 45.7449 18.1251L44.2426 19.6274L33.2167 30.6533C32.749 31.121 32.749 31.8793 33.2167 32.347L44.2426 43.373L45.7447 44.875C46.5797 45.7105 47.5712 46.3732 48.6625 46.8254C49.7538 47.2776 50.9234 47.5103 52.1047 47.5103C53.2859 47.5103 54.4556 47.2776 55.5469 46.8254C56.6382 46.3732 57.6296 45.7105 58.4647 44.875C59.3 44.04 59.9626 43.0487 60.4147 41.9576C60.8669 40.8663 61.0996 39.6966 61.0996 38.5154ZM23.31 60.4287C24.4913 60.4287 25.6609 60.196 26.7522 59.7438C27.8435 59.2917 28.835 58.6289 29.67 57.7934L31.1721 56.2914C31.194 56.2695 31.2149 56.2469 31.2348 56.2237L35.7146 51.6693L36.3491 51.0242L36.3493 51.024C36.7656 50.6009 37.0947 50.0998 37.3189 49.5496C37.5432 48.9994 37.6584 48.4103 37.6584 47.8159C37.6584 47.2214 37.5432 46.6323 37.3189 46.0821C37.0947 45.5319 36.7655 45.0306 36.3491 44.6076C35.9331 44.1845 35.438 43.8478 34.8918 43.6177C34.3453 43.3874 33.7588 43.2687 33.1661 43.2687C32.5733 43.2687 31.9869 43.3874 31.4404 43.6177C30.987 43.8087 30.5688 44.0731 30.2019 44.3994C29.3867 43.6747 28.3345 43.269 27.2377 43.269C26.0399 43.269 24.8953 43.753 24.0545 44.6078C23.2143 45.462 22.7458 46.6163 22.7458 47.8159C22.7458 49.0154 23.2143 50.1698 24.0545 51.024L24.6892 51.6693L28.5161 55.5599L27.9761 56.0999L27.9759 56.1001C27.3633 56.713 26.6359 57.1992 25.8353 57.531C25.0347 57.8627 24.1766 58.0334 23.31 58.0334C22.4434 58.0334 21.5853 57.8627 20.7847 57.531C19.9841 57.1992 19.2567 56.713 18.6441 56.1001L18.6437 56.0997C18.0308 55.4871 17.5446 54.7597 17.2129 53.9591C16.8811 53.1585 16.7104 52.3004 16.7104 51.4338C16.7104 50.5672 16.8811 49.7091 17.2129 48.9085C17.5446 48.1079 18.0308 47.3805 18.6437 46.7679L18.6439 46.7677L20.1462 45.2655L30.3252 35.0864L40.5043 45.2655L42.0065 46.7677C43.2441 48.0052 43.9393 49.6837 43.9393 51.4338C43.9393 53.1839 43.2441 54.8624 42.0065 56.0999C40.769 57.3374 39.0906 58.0327 37.3404 58.0327C35.904 58.0327 34.5159 57.5644 33.3802 56.7122C32.8511 56.3153 32.1004 56.4223 31.7034 56.9514C31.3064 57.4805 31.4135 58.2312 31.9426 58.6282C33.4905 59.7896 35.3826 60.428 37.3404 60.428C39.7258 60.428 42.0135 59.4804 43.7003 57.7936C45.387 56.1069 46.3346 53.8192 46.3346 51.4338C46.3346 49.0484 45.387 46.7607 43.7003 45.074L42.198 43.5717L31.1721 32.5458C30.7044 32.0781 29.9461 32.0781 29.4784 32.5458L18.4524 43.5717L16.9504 45.0738C16.1149 45.9088 15.4522 46.9003 15 47.9916C14.5478 49.0829 14.3151 50.2526 14.3151 51.4338C14.3151 52.6151 14.5478 53.7847 15 54.876C15.4522 55.9673 16.1149 56.9588 16.9504 57.7938C17.7854 58.6291 18.7767 59.2917 19.8678 59.7438C20.9591 60.196 22.1288 60.4287 23.31 60.4287ZM26.7522 3.25607C25.6609 2.8039 24.4912 2.57117 23.31 2.57117C22.1288 2.57117 20.9591 2.8039 19.8678 3.25607C18.7767 3.70817 17.7854 4.37078 16.9504 5.20605C16.1149 6.04112 15.4522 7.03262 15 8.12389C14.5478 9.21517 14.3151 10.3848 14.3151 11.5661C14.3151 12.7473 14.5478 13.917 15 15.0083C15.4522 16.0995 16.1149 17.091 16.9504 17.9261L18.4524 19.4282L29.4784 30.4541C29.9461 30.9218 30.7044 30.9218 31.1721 30.4541L42.198 19.4282L43.7003 17.9259C45.387 16.2392 46.3346 13.9515 46.3346 11.5661C46.3346 9.18068 45.387 6.89298 43.7003 5.20625C42.0135 3.51952 39.7258 2.57192 37.3404 2.57192C35.3826 2.57192 33.4905 3.21029 31.9426 4.37172C31.4135 4.76868 31.3064 5.51939 31.7034 6.04847C32.1004 6.57755 32.8511 6.68464 33.3802 6.28767C34.5159 5.43554 35.904 4.96722 37.3404 4.96722C39.0906 4.96722 40.769 5.66245 42.0065 6.89998C43.2441 8.13751 43.9393 9.81596 43.9393 11.5661C43.9393 13.3162 43.2441 14.9947 42.0065 16.2322L40.5043 17.7344L30.3252 27.9135L20.1462 17.7344L18.6439 16.2322L18.6437 16.232C18.0308 15.6194 17.5446 14.892 17.2128 14.0914C16.8811 13.2908 16.7104 12.4327 16.7104 11.5661C16.7104 10.6995 16.8811 9.84138 17.2128 9.04079C17.5446 8.2402 18.0308 7.51281 18.6437 6.90018L18.6441 6.89978C19.2567 6.28686 19.9841 5.80065 20.7847 5.46892C21.5853 5.1372 22.4434 4.96646 23.31 4.96646C24.1766 4.96646 25.0347 5.1372 25.8353 5.46892C26.6359 5.80065 27.3633 6.28686 27.9759 6.89978L27.9761 6.89998L28.5161 7.43996L24.6892 11.3306L24.0545 11.9759C23.2143 12.8301 22.7458 13.9844 22.7458 15.184C22.7458 16.3836 23.2143 17.5379 24.0545 18.3921C24.8953 19.2469 26.04 19.7309 27.2377 19.7309C28.3345 19.7309 29.3867 19.3251 30.2019 18.6004C30.5688 18.9268 30.987 19.1912 31.4404 19.3822C31.9869 19.6124 32.5733 19.7312 33.1661 19.7312C33.7588 19.7312 34.3453 19.6124 34.8918 19.3822C35.438 19.1521 35.9331 18.8154 36.3491 18.3923C36.7655 17.9693 37.0947 17.468 37.3189 16.9178C37.5432 16.3676 37.6584 15.7785 37.6584 15.184C37.6584 14.5896 37.5432 14.0005 37.3189 13.4503C37.0947 12.9001 36.7656 12.3989 36.3493 11.9759L36.3491 11.9757L35.7146 11.3306L31.2348 6.7761C31.2149 6.75297 31.194 6.73042 31.1721 6.7085L29.67 5.20645C28.835 4.37099 27.8435 3.70824 26.7522 3.25607ZM-0.000271807 24.608C-0.000271858 25.7893 0.232459 26.9589 0.68463 28.0502C1.1368 29.1415 1.79955 30.133 2.63501 30.9681L4.13706 32.4701C4.15704 32.4901 4.17756 32.5092 4.19855 32.5275L8.75922 37.0134L9.40435 37.648L9.40455 37.6482C9.82756 38.0644 10.3287 38.3935 10.8789 38.6177C11.4291 38.842 12.0182 38.9572 12.6126 38.9572C13.2071 38.9572 13.7962 38.842 14.3464 38.6177C14.8967 38.3935 15.3979 38.0643 15.8209 37.648C16.244 37.2319 16.5807 36.7369 16.8108 36.1906C17.0411 35.6441 17.1598 35.0576 17.1598 34.4649C17.1598 33.8722 17.0411 33.2857 16.8108 32.7392C16.6198 32.2858 16.3554 31.8677 16.0291 31.5007C16.7538 30.6855 17.1595 29.6333 17.1595 28.5365C17.1595 27.3388 16.6756 26.1941 15.8207 25.3533C14.9666 24.5131 13.8122 24.0446 12.6126 24.0446C11.4131 24.0446 10.2587 24.5131 9.40455 25.3533L8.75922 25.988L4.86894 29.8145L4.32854 29.2741L4.32834 29.2739C3.71542 28.6613 3.22921 27.9339 2.89749 27.1333C2.56576 26.3327 2.39502 25.4746 2.39502 24.608C2.39502 23.7414 2.56576 22.8833 2.89749 22.0827C3.22921 21.2822 3.71542 20.5548 4.32834 19.9421L4.32874 19.9417C4.94137 19.3288 5.66876 18.8426 6.46935 18.5109C7.26995 18.1792 8.12805 18.0084 8.99465 18.0084C9.86124 18.0084 10.7193 18.1792 11.5199 18.5109C12.3205 18.8426 13.0479 19.3288 13.6606 19.9417L13.6608 19.9419L15.163 21.4442L25.3421 31.6233L15.163 41.8023L13.6607 43.3046C12.4232 44.5421 10.7448 45.2373 8.99464 45.2373C7.24451 45.2373 5.56607 44.5421 4.32854 43.3046C3.09101 42.067 2.39578 40.3886 2.39578 38.6385C2.39578 37.2021 2.8641 35.8139 3.71623 34.6782C4.1132 34.1491 4.00611 33.3984 3.47703 33.0014C2.94795 32.6045 2.19725 32.7116 1.80028 33.2406C0.63885 34.7886 0.000482976 36.6806 0.00048289 38.6385C0.000482786 41.0239 0.94808 43.3116 2.63481 44.9983C4.32154 46.685 6.60924 47.6326 8.99464 47.6326C11.38 47.6326 13.6677 46.685 15.3545 44.9983L16.8567 43.496L27.8827 32.4701C28.3504 32.0024 28.3504 31.2441 27.8827 30.7764L16.8567 19.7505L15.3547 18.2484C14.5196 17.4129 13.5281 16.7502 12.4368 16.298C11.3456 15.8459 10.1759 15.6131 8.99465 15.6131C7.8134 15.6131 6.64373 15.8459 5.55246 16.298C4.46118 16.7502 3.46969 17.4129 2.63462 18.2484C1.79934 19.0834 1.13673 20.0747 0.684631 21.1658C0.232459 22.2571 -0.000271755 23.4268 -0.000271807 24.608ZM46.1183 26.33L46.9579 27.1841C46.759 27.3796 46.6023 27.6107 46.4957 27.8637C46.3892 28.1166 46.3346 28.3869 46.3346 28.6595C46.3346 28.932 46.3892 29.2023 46.4957 29.4552C46.6023 29.7082 46.759 29.9393 46.9579 30.1348L46.9581 30.135L47.6034 30.7698C47.8323 30.9949 47.9612 31.3026 47.9612 31.6236C47.9612 31.9447 47.8323 32.2523 47.6034 32.4775L46.9581 33.1122C46.5567 33.507 46.3349 34.0382 46.3349 34.5878C46.3349 35.1374 46.5567 35.6686 46.9581 36.0634C47.3601 36.4588 47.9095 36.6845 48.4865 36.6845C49.0634 36.6845 49.6129 36.4588 50.0149 36.0634L50.6602 35.4286L54.5287 31.6236L50.6602 27.8186L50.0149 27.1839L50.0147 27.1837C49.8158 26.988 49.5787 26.8317 49.3162 26.7248C49.0537 26.6178 48.7717 26.5625 48.4865 26.5625C48.2012 26.5625 47.9192 26.6178 47.6567 26.7248C47.3943 26.8317 47.1571 26.988 46.9583 27.1837L46.1183 26.33ZM34.6415 46.2873L35.4955 45.4476L34.6419 46.2877C34.8376 46.4865 34.9938 46.7237 35.1008 46.9861C35.2078 47.2486 35.2631 47.5306 35.2631 47.8159C35.2631 48.1011 35.2078 48.3831 35.1008 48.6456C34.9938 48.9081 34.8376 49.1452 34.6419 49.3441L34.6417 49.3443L34.0069 49.9896L30.2019 53.858L26.3969 49.9896L25.7621 49.3443C25.3667 48.9422 25.1411 48.3928 25.1411 47.8159C25.1411 47.2389 25.3667 46.6895 25.7621 46.2875C26.1569 45.8861 26.6881 45.6643 27.2377 45.6643C27.7874 45.6643 28.3185 45.8861 28.7133 46.2875L29.3481 46.9328C29.5732 47.1617 29.8808 47.2906 30.2019 47.2906C30.523 47.2906 30.8306 47.1617 31.0557 46.9328L31.6905 46.2875L31.6907 46.2873C31.8862 46.0884 32.1174 45.9316 32.3703 45.8251C32.6232 45.7186 32.8935 45.664 33.1661 45.664C33.4386 45.664 33.709 45.7186 33.9619 45.8251C34.2148 45.9316 34.4459 46.0884 34.6415 46.2873ZM35.4955 17.5522L34.6415 16.7126C34.4459 16.9115 34.2148 17.0683 33.9619 17.1748C33.709 17.2813 33.4386 17.3359 33.1661 17.3359C32.8935 17.3359 32.6232 17.2813 32.3703 17.1748C32.1174 17.0683 31.8863 16.9115 31.6907 16.7126L31.6905 16.7124L31.0557 16.0671C30.8306 15.8382 30.523 15.7093 30.2019 15.7093C29.8808 15.7093 29.5732 15.8382 29.3481 16.0671L28.7133 16.7124C28.3185 17.1138 27.7874 17.3356 27.2377 17.3356C26.6881 17.3356 26.1569 17.1138 25.7621 16.7124C25.3667 16.3104 25.1411 15.761 25.1411 15.184C25.1411 14.6071 25.3667 14.0576 25.7621 13.6556L26.3969 13.0103L30.2019 9.14185L34.0069 13.0103L34.6417 13.6556L34.6419 13.6558C34.8376 13.8547 34.9938 14.0918 35.1008 14.3543C35.2078 14.6168 35.2631 14.8988 35.2631 15.184C35.2631 15.4693 35.2078 15.7513 35.1008 16.0138C34.9938 16.2762 34.8376 16.5134 34.6419 16.7122L35.4955 17.5522ZM14.1412 35.9403L14.9809 36.7943L14.1408 35.9407C13.942 36.1364 13.7048 36.2926 13.4424 36.3996C13.1799 36.5066 12.8979 36.5619 12.6126 36.5619C12.3274 36.5619 12.0454 36.5066 11.7829 36.3996C11.5204 36.2926 11.2833 36.1364 11.0844 35.9407L11.0842 35.9405L10.4389 35.3057L6.57046 31.5007L10.4389 27.6957L11.0842 27.061C11.4863 26.6655 12.0357 26.4399 12.6126 26.4399C13.1896 26.4399 13.739 26.6655 14.141 27.061C14.5424 27.4557 14.7642 27.9869 14.7642 28.5365C14.7642 29.0862 14.5424 29.6174 14.141 30.0121L13.4957 30.6469C13.2668 30.872 13.1379 31.1797 13.1379 31.5007C13.1379 31.8218 13.2668 32.1294 13.4957 32.3546L14.141 32.9893L14.1412 32.9895C14.3402 33.1851 14.4969 33.4162 14.6034 33.6691C14.71 33.922 14.7645 34.1924 14.7645 34.4649C14.7645 34.7374 14.71 35.0078 14.6034 35.2607C14.4969 35.5136 14.3402 35.7447 14.1412 35.9403Z" fill="white"/>
<path d="M76.0328 47.3214C75.4206 47.3214 74.9462 47.153 74.6095 46.8164C74.3035 46.4491 74.1504 45.9594 74.1504 45.3472V16.286C74.1504 15.6433 74.3035 15.1536 74.6095 14.8169C74.9462 14.4802 75.4206 14.3119 76.0328 14.3119C76.6449 14.3119 77.104 14.4802 77.4101 14.8169C77.7468 15.1536 77.9151 15.6433 77.9151 16.286V28.9573H97.3351V16.286C97.3351 15.6433 97.4882 15.1536 97.7943 14.8169C98.1309 14.4802 98.6053 14.3119 99.2175 14.3119C99.8296 14.3119 100.289 14.4802 100.595 14.8169C100.931 15.1536 101.1 15.6433 101.1 16.286V45.3472C101.1 45.9594 100.931 46.4491 100.595 46.8164C100.289 47.153 99.8296 47.3214 99.2175 47.3214C98.6053 47.3214 98.1309 47.153 97.7943 46.8164C97.4882 46.4491 97.3351 45.9594 97.3351 45.3472V32.2169H77.9151V45.3472C77.9151 45.9594 77.7621 46.4491 77.456 46.8164C77.1499 47.153 76.6755 47.3214 76.0328 47.3214ZM110.408 47.2296C109.796 47.2296 109.337 47.0612 109.03 46.7245C108.724 46.3573 108.571 45.8522 108.571 45.2095V26.4322C108.571 25.7894 108.724 25.2997 109.03 24.9631C109.337 24.6264 109.796 24.458 110.408 24.458C110.989 24.458 111.448 24.6264 111.785 24.9631C112.122 25.2997 112.29 25.7894 112.29 26.4322V45.2095C112.29 45.8522 112.122 46.3573 111.785 46.7245C111.479 47.0612 111.02 47.2296 110.408 47.2296ZM110.408 19.3161C109.643 19.3161 109.046 19.1171 108.617 18.7193C108.189 18.2908 107.974 17.7245 107.974 17.0206C107.974 16.286 108.189 15.7351 108.617 15.3678C109.046 14.9699 109.643 14.771 110.408 14.771C111.204 14.771 111.8 14.9699 112.198 15.3678C112.627 15.7351 112.841 16.286 112.841 17.0206C112.841 17.7245 112.627 18.2908 112.198 18.7193C111.8 19.1171 111.204 19.3161 110.408 19.3161ZM128.194 47.4132C126.45 47.4132 124.981 47.1071 123.787 46.495C122.624 45.8522 121.752 44.934 121.17 43.7404C120.589 42.5161 120.298 41.0317 120.298 39.2871V27.5799H117.222C116.702 27.5799 116.304 27.4575 116.028 27.2127C115.753 26.9372 115.615 26.5699 115.615 26.1108C115.615 25.6517 115.753 25.2997 116.028 25.0549C116.304 24.81 116.702 24.6876 117.222 24.6876H120.298V19.4079C120.298 18.7958 120.466 18.3367 120.803 18.0306C121.14 17.6939 121.599 17.5256 122.18 17.5256C122.762 17.5256 123.205 17.6939 123.512 18.0306C123.848 18.3367 124.017 18.7958 124.017 19.4079V24.6876H129.801C130.322 24.6876 130.719 24.81 130.995 25.0549C131.27 25.2997 131.408 25.6517 131.408 26.1108C131.408 26.5699 131.27 26.9372 130.995 27.2127C130.719 27.4575 130.322 27.5799 129.801 27.5799H124.017V38.9198C124.017 40.6644 124.384 41.9958 125.118 42.914C125.853 43.8016 127.047 44.2454 128.699 44.2454C129.281 44.2454 129.771 44.1842 130.169 44.0617C130.597 43.9393 130.949 43.8781 131.224 43.8781C131.5 43.8475 131.729 43.9393 131.913 44.1536C132.097 44.3678 132.189 44.7351 132.189 45.2554C132.189 45.6227 132.112 45.9594 131.959 46.2654C131.837 46.5715 131.607 46.7858 131.27 46.9082C130.903 47.0306 130.413 47.1377 129.801 47.2296C129.22 47.352 128.684 47.4132 128.194 47.4132ZM146.855 47.4132C144.835 47.4132 143.091 46.8929 141.622 45.8522C140.183 44.8116 139.219 43.419 138.729 41.6744L139.234 41.1694V45.3931C139.234 46.0053 139.066 46.4797 138.729 46.8164C138.423 47.153 137.98 47.3214 137.398 47.3214C136.786 47.3214 136.327 47.153 136.021 46.8164C135.715 46.4797 135.562 46.0053 135.562 45.3931V16.1942C135.562 15.5821 135.715 15.1229 136.021 14.8169C136.327 14.4802 136.786 14.3119 137.398 14.3119C137.98 14.3119 138.439 14.4802 138.775 14.8169C139.112 15.1229 139.28 15.5821 139.28 16.1942V29.8755H138.729C139.25 28.1615 140.229 26.7995 141.668 25.7894C143.106 24.7794 144.835 24.2744 146.855 24.2744C148.876 24.2744 150.62 24.7488 152.089 25.6976C153.558 26.6158 154.691 27.9472 155.487 29.6918C156.313 31.4058 156.726 33.4565 156.726 35.8438C156.726 38.2005 156.313 40.2512 155.487 41.9958C154.691 43.7098 153.543 45.0412 152.043 45.99C150.574 46.9388 148.845 47.4132 146.855 47.4132ZM146.075 44.429C147.483 44.429 148.692 44.0923 149.702 43.419C150.743 42.7456 151.538 41.7662 152.089 40.4807C152.671 39.1952 152.962 37.6496 152.962 35.8438C152.962 33.0586 152.334 30.9314 151.079 29.4623C149.855 27.9931 148.187 27.2586 146.075 27.2586C144.698 27.2586 143.489 27.5952 142.448 28.2686C141.407 28.9113 140.596 29.8755 140.015 31.1609C139.464 32.4158 139.188 33.9768 139.188 35.8438C139.188 38.5984 139.816 40.7256 141.071 42.2253C142.326 43.6945 143.994 44.429 146.075 44.429ZM169.352 47.4132C167.822 47.4132 166.444 47.1224 165.22 46.5409C164.026 45.9288 163.077 45.1024 162.374 44.0617C161.67 43.0211 161.318 41.858 161.318 40.5726C161.318 38.9198 161.731 37.619 162.557 36.6702C163.414 35.7214 164.807 35.048 166.735 34.6501C168.694 34.2522 171.357 34.0533 174.723 34.0533H176.789V36.4865H174.769C172.29 36.4865 170.331 36.609 168.893 36.8538C167.485 37.0681 166.49 37.4507 165.909 38.0016C165.358 38.5525 165.082 39.333 165.082 40.343C165.082 41.5979 165.511 42.6232 166.368 43.419C167.255 44.2148 168.449 44.6127 169.949 44.6127C171.173 44.6127 172.244 44.3219 173.162 43.7404C174.111 43.1588 174.846 42.3631 175.366 41.353C175.917 40.343 176.193 39.1799 176.193 37.8639V32.6301C176.193 30.7325 175.81 29.3704 175.045 28.5441C174.28 27.6871 173.025 27.2586 171.28 27.2586C170.209 27.2586 169.138 27.3963 168.066 27.6718C166.995 27.9472 165.863 28.391 164.669 29.0032C164.241 29.2174 163.873 29.2939 163.567 29.2327C163.261 29.1409 163.016 28.9726 162.833 28.7277C162.649 28.4828 162.542 28.2074 162.511 27.9013C162.481 27.5646 162.542 27.2433 162.695 26.9372C162.879 26.6311 163.154 26.3863 163.521 26.2026C164.868 25.5293 166.199 25.0396 167.515 24.7335C168.832 24.4274 170.086 24.2744 171.28 24.2744C173.208 24.2744 174.8 24.5958 176.055 25.2385C177.31 25.8507 178.243 26.7995 178.855 28.085C179.467 29.3398 179.774 30.962 179.774 32.9514V45.3931C179.774 46.0053 179.621 46.4797 179.314 46.8164C179.039 47.153 178.626 47.3214 178.075 47.3214C177.493 47.3214 177.05 47.153 176.743 46.8164C176.437 46.4797 176.284 46.0053 176.284 45.3931V41.8121H176.698C176.453 42.9752 175.978 43.9699 175.274 44.7963C174.601 45.6227 173.759 46.2654 172.749 46.7245C171.739 47.1836 170.607 47.4132 169.352 47.4132Z" fill="white"/>
</svg>
