<svg width="80" height="80" viewBox="0 0 80 80" fill="none" xmlns="http://www.w3.org/2000/svg">
<g filter="url(#filter0_ii_551_1833)">
<path fill-rule="evenodd" clip-rule="evenodd" d="M40 14C25.6406 14 14 25.6406 14 40C14 45.9643 16.0083 51.4595 19.3855 55.8464C21.2735 53.5091 23.5539 51.4992 26.1376 49.9133C26.7551 49.5343 27.3863 49.1817 28.0295 48.856C25.2223 45.8979 23.5 41.9001 23.5 37.5C23.5 28.3873 30.8873 21 40 21C49.1127 21 56.5 28.3873 56.5 37.5C56.5 41.9 54.7778 45.8977 51.9706 48.8558C52.614 49.1816 53.2453 49.5342 53.8629 49.9133C56.4465 51.4991 58.7268 53.5089 60.6148 55.8461C63.9918 51.4593 66 45.9642 66 40C66 25.6406 54.3594 14 40 14ZM39.8204 53.999C39.8802 53.9997 39.9401 54 40 54C40.06 54 40.12 53.9997 40.1798 53.999C43.5339 54.0316 46.8173 54.9755 49.6779 56.7314C51.6678 57.9527 53.4 59.5344 54.7909 61.3858C50.5921 64.2952 45.4951 66 40 66C34.505 66 29.4081 64.2953 25.2094 61.386C26.6004 59.5345 28.3326 57.9528 30.3225 56.7314C33.1831 54.9756 36.4664 54.0316 39.8204 53.999ZM40.1548 45.9986C44.7778 45.9161 48.5 42.1427 48.5 37.5C48.5 32.8056 44.6944 29 40 29C35.3056 29 31.5 32.8056 31.5 37.5C31.5 42.1428 35.2223 45.9161 39.8454 45.9986C39.897 45.9983 39.9486 45.9982 40.0002 45.9982C40.0518 45.9982 40.1033 45.9983 40.1548 45.9986ZM17.4433 65.4405C17.3166 65.3397 17.1973 65.2321 17.0854 65.1185C10.2737 58.9009 6 49.9495 6 40C6 21.2223 21.2223 6 40 6C58.7777 6 74 21.2223 74 40C74 49.9472 69.7283 58.8967 62.9193 65.1142C62.8049 65.2308 62.6825 65.3411 62.5525 65.4442C56.5511 70.7675 48.6531 74 40 74C31.3449 74 23.4452 70.766 17.4433 65.4405Z" fill="#514EB6"/>
</g>
<defs>
<filter id="filter0_ii_551_1833" x="6" y="6" width="68" height="76" filterUnits="userSpaceOnUse" color-interpolation-filters="sRGB">
<feFlood flood-opacity="0" result="BackgroundImageFix"/>
<feBlend mode="normal" in="SourceGraphic" in2="BackgroundImageFix" result="shape"/>
<feColorMatrix in="SourceAlpha" type="matrix" values="0 0 0 0 0 0 0 0 0 0 0 0 0 0 0 0 0 0 127 0" result="hardAlpha"/>
<feOffset dy="9"/>
<feGaussianBlur stdDeviation="4"/>
<feComposite in2="hardAlpha" operator="arithmetic" k2="-1" k3="1"/>
<feColorMatrix type="matrix" values="0 0 0 0 1 0 0 0 0 1 0 0 0 0 1 0 0 0 0.25 0"/>
<feBlend mode="normal" in2="shape" result="effect1_innerShadow_551_1833"/>
<feColorMatrix in="SourceAlpha" type="matrix" values="0 0 0 0 0 0 0 0 0 0 0 0 0 0 0 0 0 0 127 0" result="hardAlpha"/>
<feOffset dy="2"/>
<feGaussianBlur stdDeviation="0.5"/>
<feComposite in2="hardAlpha" operator="arithmetic" k2="-1" k3="1"/>
<feColorMatrix type="matrix" values="0 0 0 0 1 0 0 0 0 1 0 0 0 0 1 0 0 0 0.63 0"/>
<feBlend mode="normal" in2="effect1_innerShadow_551_1833" result="effect2_innerShadow_551_1833"/>
</filter>
</defs>
</svg>
