<svg width="80" height="80" viewBox="0 0 80 80" fill="none" xmlns="http://www.w3.org/2000/svg">
<g filter="url(#filter0_ii_928_2068)">
<path fill-rule="evenodd" clip-rule="evenodd" d="M40 14C25.6406 14 14 25.6406 14 40C14 45.9642 16.0082 51.4594 19.3854 55.8462C21.2733 53.509 23.5537 51.4991 26.1373 49.9133C26.7549 49.5343 27.3861 49.1816 28.0294 48.8559C25.2223 45.8978 23.5 41.9 23.5 37.5C23.5 28.3873 30.8873 21 40 21C49.1127 21 56.5 28.3873 56.5 37.5C56.5 41.9 54.7777 45.8978 51.9706 48.8559C52.6139 49.1816 53.2451 49.5343 53.8627 49.9133C56.4463 51.4991 58.7267 53.509 60.6146 55.8462C63.9918 51.4594 66 45.9642 66 40C66 25.6406 54.3594 14 40 14ZM39.8203 53.999C39.8801 53.9997 39.94 54 40 54C40.06 54 40.1199 53.9997 40.1797 53.999C43.5338 54.0316 46.8171 54.9755 49.6777 56.7314C51.6676 57.9528 53.3998 59.5344 54.7908 61.3859C50.592 64.2953 45.4951 66 40 66C34.5049 66 29.408 64.2953 25.2092 61.3859C26.6002 59.5344 28.3324 57.9528 30.3223 56.7314C33.1829 54.9755 36.4662 54.0316 39.8203 53.999ZM40.1547 45.9986C44.7777 45.9161 48.5 42.1427 48.5 37.5C48.5 32.8056 44.6944 29 40 29C35.3056 29 31.5 32.8056 31.5 37.5C31.5 42.1427 35.2223 45.9161 39.8453 45.9986C39.8969 45.9983 39.9484 45.9982 40 45.9982C40.0516 45.9982 40.1031 45.9983 40.1547 45.9986ZM17.4454 65.4424C17.3171 65.3404 17.1962 65.2314 17.0831 65.1163C10.2727 58.8988 6 49.9484 6 40C6 21.2223 21.2223 6 40 6C58.7777 6 74 21.2223 74 40C74 49.9484 69.7273 58.8988 62.9169 65.1163C62.8038 65.2315 62.683 65.3404 62.5546 65.4424C56.5529 70.7668 48.6541 74 40 74C31.346 74 23.4471 70.7668 17.4454 65.4424Z" fill="#1DAC8A"/>
</g>
<defs>
<filter id="filter0_ii_928_2068" x="6" y="6" width="68" height="76" filterUnits="userSpaceOnUse" color-interpolation-filters="sRGB">
<feFlood flood-opacity="0" result="BackgroundImageFix"/>
<feBlend mode="normal" in="SourceGraphic" in2="BackgroundImageFix" result="shape"/>
<feColorMatrix in="SourceAlpha" type="matrix" values="0 0 0 0 0 0 0 0 0 0 0 0 0 0 0 0 0 0 127 0" result="hardAlpha"/>
<feOffset dy="9"/>
<feGaussianBlur stdDeviation="4"/>
<feComposite in2="hardAlpha" operator="arithmetic" k2="-1" k3="1"/>
<feColorMatrix type="matrix" values="0 0 0 0 1 0 0 0 0 1 0 0 0 0 1 0 0 0 0.25 0"/>
<feBlend mode="normal" in2="shape" result="effect1_innerShadow_928_2068"/>
<feColorMatrix in="SourceAlpha" type="matrix" values="0 0 0 0 0 0 0 0 0 0 0 0 0 0 0 0 0 0 127 0" result="hardAlpha"/>
<feOffset dy="2"/>
<feGaussianBlur stdDeviation="0.5"/>
<feComposite in2="hardAlpha" operator="arithmetic" k2="-1" k3="1"/>
<feColorMatrix type="matrix" values="0 0 0 0 1 0 0 0 0 1 0 0 0 0 1 0 0 0 0.63 0"/>
<feBlend mode="normal" in2="effect1_innerShadow_928_2068" result="effect2_innerShadow_928_2068"/>
</filter>
</defs>
</svg>
